<?xml version="1.0" encoding="UTF-8" standalone="no"?>
<!-- Created with Inkscape (http://www.inkscape.org/) -->

<svg
   width="138.88124mm"
   height="20mm"
   viewBox="0 0 138.88124 20"
   version="1.1"
   id="svg5"
   xml:space="preserve"
   sodipodi:docname="logo-black-text.svg"
   inkscape:version="1.4.3 (0d15f75042, 2025-12-25)"
   xmlns:inkscape="http://www.inkscape.org/namespaces/inkscape"
   xmlns:sodipodi="http://sodipodi.sourceforge.net/DTD/sodipodi-0.dtd"
   xmlns:xlink="http://www.w3.org/1999/xlink"
   xmlns="http://www.w3.org/2000/svg"
   xmlns:svg="http://www.w3.org/2000/svg"><sodipodi:namedview
     id="namedview1"
     pagecolor="#ffffff"
     bordercolor="#000000"
     borderopacity="0.25"
     inkscape:showpageshadow="2"
     inkscape:pageopacity="0.0"
     inkscape:pagecheckerboard="0"
     inkscape:deskcolor="#d1d1d1"
     inkscape:document-units="mm"
     inkscape:zoom="2.8175975"
     inkscape:cx="279.31598"
     inkscape:cy="23.069299"
     inkscape:window-width="1853"
     inkscape:window-height="1043"
     inkscape:window-x="0"
     inkscape:window-y="0"
     inkscape:window-maximized="1"
     inkscape:current-layer="svg5" /><defs
     id="defs2"><linearGradient
       id="linearGradient5971"><stop
         style="stop-color:#fafafa;stop-opacity:1;"
         offset="0"
         id="stop5967" /><stop
         style="stop-color:#c7c7c7;stop-opacity:1;"
         offset="1"
         id="stop5969" /></linearGradient><linearGradient
       id="linearGradient5963"><stop
         style="stop-color:#00e676;stop-opacity:1;"
         offset="0"
         id="stop5959" /><stop
         style="stop-color:#5ce6a2;stop-opacity:1;"
         offset="1"
         id="stop5961" /></linearGradient><linearGradient
       id="linearGradient5955"><stop
         style="stop-color:#2979ff;stop-opacity:1;"
         offset="0"
         id="stop5951" /><stop
         style="stop-color:#8fb9ff;stop-opacity:1;"
         offset="1"
         id="stop5953" /></linearGradient><linearGradient
       xlink:href="#linearGradient5955"
       id="linearGradient5957"
       x1="0"
       y1="50"
       x2="100"
       y2="50"
       gradientUnits="userSpaceOnUse" /><linearGradient
       xlink:href="#linearGradient5963"
       id="linearGradient5965"
       x1="14.644625"
       y1="29.045189"
       x2="85.355263"
       y2="29.045189"
       gradientUnits="userSpaceOnUse" /><linearGradient
       xlink:href="#linearGradient5971"
       id="linearGradient5973"
       x1="14.644695"
       y1="70.954842"
       x2="85.355339"
       y2="70.954842"
       gradientUnits="userSpaceOnUse" /></defs><g
     id="layer1"
     transform="matrix(1.2211092,0,0,1.210717,-17.686257,-15.551135)"
     style="display:inline;stroke-width:0.822436"><g
       id="g5145"
       transform="translate(-2.1054252,2.1234972)"
       style="stroke-width:0.822436"><g
         id="g1851"
         transform="matrix(0.65516225,0,0,0.64938244,10.037567,2.7460766)"
         style="stroke-width:1.26089"><g
           id="g1369"
           transform="matrix(0.17677125,-0.17987542,0.17677125,0.17987542,4.82249,25)"
           style="stroke-width:4.99998"><path
             style="fill:url(#linearGradient5957);fill-opacity:1;stroke-width:2.40056"
             id="path234"
             d="M 6.2668882,74.236644 A 50,50 0 0 1 25.655756,6.3266925 50,50 0 0 1 93.613238,25.548304 50,50 0 0 1 74.559,93.552905 50,50 0 0 1 6.5076924,74.666155" /><path
             id="path10531"
             style="fill:url(#linearGradient5973);fill-opacity:1;stroke-width:2.40056"
             d="m 85.355338,71.213204 a 50.027615,50.029938 45 0 0 -59.713341,-8.342883 50.027615,50.029938 45 0 0 -10.997302,8.34299 l 14.14196,14.141961 a 30.016573,30.017968 45 0 1 6.598525,-5.006083 30.016573,30.017968 45 0 1 35.828147,5.006018 z" /><path
             id="path10531-2"
             style="fill:url(#linearGradient5965);fill-opacity:1;stroke-width:2.40056"
             d="m 14.644625,28.786833 a 50.027615,50.029938 45 0 0 59.713339,8.34288 50.027615,50.029938 45 0 0 10.997302,-8.34299 l -14.14196,-14.14196 a 30.016573,30.017968 45 0 1 -6.598526,5.00608 30.016573,30.017968 45 0 1 -35.828145,-5.00601 z" /><g
             id="g748"
             style="fill:#9cc05d;fill-opacity:1;stroke:#9cc05d;stroke-width:25.0001;stroke-dasharray:none;stroke-opacity:1" /></g><g
           aria-label="FOSS for All"
           id="text964"
           style="font-weight:900;font-size:25px;font-family:Pretendard;-inkscape-font-specification:'Pretendard Heavy';fill:#ffffff;stroke-width:1.26088;stroke-miterlimit:0;stroke-dasharray:1.26088, 3.78268"><path
             d="m 41.25,34.130859 h 4.638672 v -6.958007 h 6.90918 v -3.759766 h -6.90918 v -3.198242 h 7.69043 V 16.455078 H 41.25 Z"
             style="fill:#000000;stroke-width:1.26088"
             id="path1947" /><path
             d="m 72.426758,25.292969 c 0,-5.883789 -3.759766,-9.082032 -8.544922,-9.082032 -4.833984,0 -8.569336,3.198243 -8.569336,9.082032 0,5.859375 3.735352,9.082031 8.569336,9.082031 4.785156,0 8.544922,-3.198242 8.544922,-9.082031 z m -4.785156,0 c 0,3.24707 -1.342774,5.029297 -3.759766,5.029297 -2.441406,0 -3.78418,-1.782227 -3.78418,-5.029297 0,-3.247071 1.342774,-5.029297 3.78418,-5.029297 2.416992,0 3.759766,1.782226 3.759766,5.029297 z"
             style="fill:#000000;stroke-width:1.26088"
             id="path1949" /><path
             d="m 84.21875,21.923828 h 4.467773 c -0.02441,-3.442383 -2.685546,-5.712891 -6.933593,-5.712891 -4.150391,0 -7.104493,2.246094 -7.080078,5.590821 0,2.734375 1.904296,4.272461 5.004882,4.956054 l 1.782227,0.390625 c 1.977539,0.439454 2.685547,0.927735 2.709961,1.782227 -0.02441,0.927734 -0.878906,1.586914 -2.46582,1.586914 -1.831055,0 -2.978516,-0.878906 -3.051758,-2.514648 h -4.44336 c 0.04883,4.345703 3.00293,6.347656 7.56836,6.347656 4.467773,0 7.128906,-1.953125 7.15332,-5.419922 -0.02441,-2.709961 -1.708984,-4.56543 -5.517578,-5.371094 l -1.464844,-0.341797 c -1.635742,-0.341796 -2.46582,-0.854492 -2.441406,-1.757812 0.02441,-0.830078 0.708008,-1.416016 2.246094,-1.416016 1.586914,0 2.368164,0.683594 2.46582,1.879883 z"
             style="fill:#000000;stroke-width:1.26088"
             id="path1951" /><path
             d="m 100.35645,21.923828 h 4.46777 c -0.0244,-3.442383 -2.68555,-5.712891 -6.933595,-5.712891 -4.150391,0 -7.104492,2.246094 -7.080078,5.590821 0,2.734375 1.904297,4.272461 5.004883,4.956054 l 1.782226,0.390625 c 1.977539,0.439454 2.685544,0.927735 2.709964,1.782227 -0.0244,0.927734 -0.878909,1.586914 -2.465823,1.586914 -1.831055,0 -2.978516,-0.878906 -3.051758,-2.514648 H 90.34668 c 0.04883,4.345703 3.002929,6.347656 7.568359,6.347656 4.467771,0 7.128911,-1.953125 7.153321,-5.419922 -0.0244,-2.709961 -1.70898,-4.56543 -5.517579,-5.371094 l -1.464844,-0.341797 c -1.635742,-0.341796 -2.46582,-0.854492 -2.441406,-1.757812 0.02441,-0.830078 0.708008,-1.416016 2.246094,-1.416016 1.586914,0 2.368165,0.683594 2.465825,1.879883 z"
             style="fill:#000000;stroke-width:1.26088"
             id="path1953" /><path
             d="m 120.27832,20.874023 h -2.44141 v -0.463867 c 0,-0.90332 0.58594,-1.269531 1.51368,-1.269531 0.17089,0 0.56152,0.02441 1.14746,0.07324 V 15.869141 C 119.7168,15.698242 118.95996,15.625 117.93457,15.625 c -2.88086,0 -4.71191,1.5625 -4.71191,4.785156 v 0.463867 h -1.70899 v 3.344727 h 1.70899 v 9.912109 h 4.61425 V 24.21875 h 2.44141 z"
             style="fill:#000000;stroke-width:1.26088"
             id="path1955" /><path
             d="m 128.0542,34.375 c 4.27246,0 6.81152,-2.758789 6.81152,-6.835938 0,-4.077148 -2.53906,-6.835937 -6.81152,-6.835937 -4.27246,0 -6.83594,2.758789 -6.83594,6.835937 0,4.077149 2.56348,6.835938 6.83594,6.835938 z m 0.0244,-3.417969 c -1.34277,0 -2.14843,-1.342773 -2.14843,-3.442383 0,-2.124023 0.80566,-3.442382 2.14843,-3.442382 1.29395,0 2.0752,1.318359 2.0752,3.442382 0,2.09961 -0.78125,3.442383 -2.0752,3.442383 z"
             style="fill:#000000;stroke-width:1.26088"
             id="path1957" /><path
             d="m 136.86768,34.130859 h 4.61425 v -6.982422 c 0,-1.538085 1.04981,-2.563476 2.49024,-2.563476 0.48828,0 1.26953,0.07324 1.7334,0.244141 v -3.979493 c -0.36621,-0.09766 -0.78125,-0.146484 -1.19629,-0.146484 -1.44043,0 -2.53907,0.830078 -3.02735,2.661133 h -0.14648 v -2.490235 h -4.46777 z"
             style="fill:#000000;stroke-width:1.26088"
             id="path1959" /><path
             d="m 157.05811,34.130859 1.0498,-3.466797 h 5.93262 l 1.0498,3.466797 h 5.00488 l -5.85937,-17.675781 h -6.32324 l -5.88379,17.675781 z m 2.12402,-6.982422 1.80664,-5.932617 h 0.14648 l 1.83106,5.932617 z"
             style="fill:#000000;stroke-width:1.26088"
             id="path1961" /><path
             d="m 176.51611,16.455078 h -4.61425 v 17.675781 h 4.61425 z"
             style="fill:#000000;stroke-width:1.26088"
             id="path1963" /><path
             d="m 183.59619,16.455078 h -4.61426 v 17.675781 h 4.61426 z"
             style="fill:#000000;stroke-width:1.26088"
             id="path1965" /></g></g></g></g></svg>
